<svg width="57" height="32" viewBox="0 0 57 32" fill="none" xmlns="http://www.w3.org/2000/svg">
<path d="M16.4994 2.66699C9.14735 2.66699 3.16602 8.64833 3.16602 16.0003C3.16602 23.3523 9.14735 29.3337 16.4994 29.3337C23.8514 29.3337 29.8327 23.3523 29.8327 16.0003C29.8327 8.64833 23.8514 2.66699 16.4994 2.66699ZM13.834 21.8843L8.88335 16.9443L10.766 15.0563L13.8314 18.1163L20.89 11.0577L22.7754 12.943L13.834 21.8843Z" fill="#0FAD5D"/>
<g clip-path="url(#clip0_616_476)">
<circle cx="40.5" cy="16" r="16" fill="white"/>
<path d="M40.4994 2.66699C33.1474 2.66699 27.166 8.64833 27.166 16.0003C27.166 23.3523 33.1474 29.3337 40.4994 29.3337C47.8514 29.3337 53.8327 23.3523 53.8327 16.0003C53.8327 8.64833 47.8514 2.66699 40.4994 2.66699ZM37.834 21.8843L32.8834 16.9443L34.766 15.0563L37.8314 18.1163L44.89 11.0577L46.7754 12.943L37.834 21.8843Z" fill="#0FAD5D"/>
</g>
<defs>
<clipPath id="clip0_616_476">
<rect width="32" height="32" fill="white" transform="translate(24.5)"/>
</clipPath>
</defs>
</svg>
